:FULLY-SPECIFIED
:FORCE-ALL-JOINTS-BE-3DOF
:DEGREES
136
root 7.75212 16.4977 -26.2838 -10.382 10.641 5.26684
lfemur -6.15748 13.8192 -21.2586
ltibia 36.2891 -0 0
lfoot -17.9891 -13.3643 -0.0250329
ltoes 31.4943 -0 0
rfemur -101.957 -25.4536 58.4075
rtibia 94.5972 -0 0
rfoot 19.662 26.7728 0.130657
rtoes -36.253 0 0
lowerback 17.2143 -3.6661 -9.02476
upperback 5.64232 -6.37986 -2.08813
thorax -2.77468 -3.19215 4.04341
lowerneck -12.4696 -0.6869 -0.643549
upperneck 0.295828 -0.972447 3.56551
head 2.28092 -0.366476 1.20832
lclavicle 2.27804e-15 1.60882e-14 -5.70577e-31
lhumerus -40.8223 -23.4512 90.1433
lradius 52.8914 -0 0
lwrist 18.0894 0 0
lhand 10.1374 7.05203 0.00584879
lfingers 7.12502 -0 0
lthumb 35.2549 33.5326 0.00133014
rclavicle 2.27804e-15 1.60882e-14 -5.70577e-31
rhumerus -45.1899 -27.6532 -58.2528
rradius 82.7975 -0 0
rwrist -39.7242 0 0
rhand -29.2036 -26.836 -6.27179e-05
rfingers 7.12502 -0 0
rthumb -2.54832 -56.8006 -3.77468e-06
137
root 7.75804 16.4962 -26.2765 -10.4566 10.7052 5.28771
lfemur -6.10456 13.8668 -21.2541
ltibia 36.2951 -0 0
lfoot -17.9074 -13.4383 -0.0123009
ltoes 31.4659 -0 0
rfemur -102.33 -25.423 58.6176
rtibia 94.8501 -0 0
rfoot 19.8905 26.8945 0.064228
rtoes -36.4172 0 0
lowerback 17.2959 -3.69359 -9.0456
upperback 5.67716 -6.42554 -2.11231
thorax -2.77863 -3.21638 4.03561
lowerneck -12.4799 -0.681338 -0.654858
upperneck 0.302996 -0.964474 3.58657
head 2.28547 -0.36179 1.21721
lclavicle 2.91227e-15 1.62013e-14 -2.80589e-31
lhumerus -40.8105 -23.5066 90.1053
lradius 52.9613 -0 0
lwrist 18.1498 0 0
lhand 10.2288 7.06953 0.00284364
lfingers 7.12502 -0 0
lthumb 35.3425 33.5373 0.000624823
rclavicle 2.91227e-15 1.62013e-14 -2.80589e-31
rhumerus -45.2233 -27.7437 -58.1371
rradius 82.9675 -0 0
rwrist -39.9157 0 0
rhand -29.2462 -26.8694 -4.85672e-05
rfingers 7.12502 -0 0
rthumb -2.5894 -56.8334 -1.82665e-05
138
root 7.76371 16.4948 -26.2696 -10.5279 10.767 5.30759
lfemur -6.05405 13.9126 -21.2497
ltibia 36.301 0 0
lfoot -17.8292 -13.5095 0
ltoes 31.4387 0 0
rfemur -102.687 -25.3926 58.8183
rtibia 95.0935 0 0
rfoot 20.1118 27.0097 0
rtoes -36.5695 0 0
lowerback 17.374 -3.72 -9.06556
upperback 5.71054 -6.46942 -2.13555
thorax -2.78239 -3.23966 4.02808
lowerneck -12.4898 -0.676045 -0.665731
upperneck 0.309862 -0.956882 3.60684
head 2.28983 -0.35732 1.22576
lclavicle 3.52843e-15 1.63003e-14 0
lhumerus -40.799 -23.5599 90.0689
lradius 53.0282 0 0
lwrist 18.2076 0 0
lhand 10.3167 7.08611 0
lfingers 7.12502 0 0
lthumb 35.4266 33.5415 0
rclavicle 3.52843e-15 1.63003e-14 0
rhumerus -45.2558 -27.8304 -58.0264
rradius 83.1308 0 0
rwrist -40.0987 0 0
rhand -29.2885 -26.9024 0
rfingers 7.12502 0 0
rthumb -2.63029 -56.8659 0
139
root 7.71756 16.4805 -26.2669 -10.0465 11.9082 4.97098
lfemur -6.98791 14.2862 -20.8264
ltibia 36.7829 0 0
lfoot -17.8927 -14.5121 0
ltoes 31.654 0 0
rfemur -102.903 -25.5352 57.3636
rtibia 98.8692 0 0
rfoot 29.3556 22.314 0
rtoes -17.0937 0 0
lowerback 17.1802 -4.06549 -8.86558
upperback 5.54475 -6.87863 -2.15319
thorax -2.83323 -3.43224 3.95824
lowerneck -12.3761 -0.838353 -0.802575
upperneck 0.284744 -1.1632 3.884
head 2.27077 -0.452478 1.32811
lclavicle 5.35725e-14 -1.86858e-14 0
lhumerus -40.1384 -24.6203 90.1707
lradius 52.2274 0 0
lwrist 17.6404 0 0
lhand 11.4487 7.55993 0
lfingers 7.12502 0 0
lthumb 36.499 33.7523 0
rclavicle 5.35725e-14 -1.86858e-14 0
rhumerus -46.1521 -27.9074 -58.8192
rradius 84.1539 0 0
rwrist -38.0524 0 0
rhand -35.3168 -31.2119 0
rfingers 7.12502 0 0
rthumb -8.45048 -61.0228 0
140
root 7.67755 16.4719 -26.2637 -9.61016 12.7275 4.72559
lfemur -7.75481 14.5877 -20.5515
ltibia 37.0857 -0 0
lfoot -18.1414 -14.4923 -0.00135397
ltoes 30.4253 -0 0
rfemur -102.423 -25.9512 55.9655
rtibia 101.303 -0 0
rfoot 30.6418 21.8571 0.0262802
rtoes -13.9429 0 0
lowerback 16.9569 -4.24748 -8.76334
upperback 5.39516 -7.08599 -2.1475
thorax -2.8625 -3.52848 3.92758
lowerneck -12.276 -0.999814 -0.846859
upperneck 0.259641 -1.37728 4.05604
head 2.25358 -0.55488 1.38004
lclavicle 4.20478e-14 -2.15324e-14 -1.22095e-30
lhumerus -39.5873 -25.3949 90.3371
lradius 51.5724 -0 0
lwrist 16.7658 0 0
lhand 12.5629 8.00895 0.0196769
lfingers 7.12502 -0 0
lthumb 37.5486 33.8937 0.00593478
rclavicle 4.20478e-14 -2.15324e-14 -1.22095e-30
rhumerus -46.8903 -27.3988 -59.677
rradius 84.7751 -0 0
rwrist -35.3714 0 0
rhand -37.3881 -36.4472 0.374099
rfingers 7.12502 -0 0
rthumb -9.91129 -40.9222 -1.66711
141
root 7.62386 16.4605 -26.2594 -9.02627 13.8216 4.40881
lfemur -8.78412 14.9836 -20.1973
ltibia 37.4885 -0 0
lfoot -18.5036 -14.45 -0.00215586
ltoes 28.7226 -0 0
rfemur -101.737 -26.5051 54.0824
rtibia 104.531 -0 0
rfoot 31.822 21.5702 0.036039
rtoes -10.8206 0 0
lowerback 16.6554 -4.48364 -8.63014
upperback 5.19328 -7.35524 -2.1398
thorax -2.90293 -3.65322 3.88694
lowerneck -12.1389 -1.218 -0.899134
upperneck 0.22557 -1.6676 4.28515
head 2.23022 -0.693935 1.44767
lclavicle 2.07695e-14 -2.29954e-14 -1.42757e-30
lhumerus -38.8423 -26.4291 90.5493
lradius 50.6892 -0 0
lwrist 15.5486 0 0
lhand 14.0744 8.62029 0.0337852
lfingers 7.12502 -0 0
lthumb 38.9723 34.0863 0.0108307
rclavicle 2.07695e-14 -2.29954e-14 -1.42757e-30
rhumerus -47.8906 -26.6915 -60.8432
rradius 85.5807 -0 0
rwrist -31.6864 0 0
rhand -39.9976 -43.8584 0.678468
rfingers 7.12502 -0 0
rthumb -12.2491 -12.3857 -3.13389
